<svg width="179" height="57" viewBox="0 0 179 57" fill="none" xmlns="http://www.w3.org/2000/svg">
<g clip-path="url(#clip0_2064_968)">
<path d="M42.3642 43.3572H12.1016V21.4428L27.9865 11.5872L42.3642 21.4428V43.3572Z" fill="url(#paint0_linear_2064_968)"/>
<path d="M42.3642 43.3572H12.1016V21.4428L27.9865 11.5872L42.3642 21.4428V43.3572Z" fill="#DFEEFC" fill-opacity="0.64"/>
<path d="M27.2314 22.8341C28.8003 22.8341 30.0721 21.5623 30.0721 19.9933C30.0721 18.4244 28.8003 17.1526 27.2314 17.1526C25.6625 17.1526 24.3906 18.4244 24.3906 19.9933C24.3906 21.5623 25.6625 22.8341 27.2314 22.8341Z" fill="#9BBFDA"/>
<path d="M37.201 45.1548C37.201 50.7204 32.737 55.1844 27.2294 55.1844C21.7218 55.1844 17.2578 50.6624 17.2578 45.1548C17.2578 39.5892 27.2294 28.2842 27.2294 28.2842C27.2294 28.2842 37.201 39.5892 37.201 45.1548Z" fill="white"/>
<path d="M37.9556 46.5462C37.9556 51.7639 33.7234 55.996 28.5637 55.996C23.346 55.996 19.1719 51.7639 19.1719 46.5462C19.1719 41.3285 28.5637 30.6611 28.5637 30.6611C28.5637 30.6611 37.9556 41.3285 37.9556 46.5462Z" fill="#9BBFDA"/>
<path d="M37.9556 46.5462C37.9556 51.7639 33.7234 55.996 28.5637 55.996C23.346 55.996 19.1719 51.7639 19.1719 46.5462C19.1719 41.3285 28.5637 30.6611 28.5637 30.6611C28.5637 30.6611 37.9556 41.3285 37.9556 46.5462Z" fill="url(#paint1_linear_2064_968)"/>
<path opacity="0.34" d="M35.1134 39.5312C35.5772 40.6328 35.8091 41.6763 35.8091 42.6039C35.8091 47.8216 31.6349 52.1117 26.4172 52.1117C23.6345 52.1117 21.1416 50.8943 19.4023 48.9231C20.3879 53.0973 24.0983 56.17 28.5043 56.17C33.664 56.17 37.8962 51.9378 37.8962 46.6621C37.9541 44.749 36.7367 42.0821 35.1134 39.5312Z" fill="#86A1BA"/>
<path d="M2.59076 23.6457C2.18494 23.6457 1.77912 23.4717 1.54723 23.0659C1.19938 22.4862 1.31533 21.7325 1.89507 21.3847L26.5921 5.49961C26.998 5.26771 27.5197 5.26771 27.9255 5.49961L52.5067 21.3847C53.0864 21.7325 53.2024 22.4862 52.8545 23.0659C52.5067 23.6457 51.753 23.8196 51.1732 23.4138L27.2299 7.93454L3.28646 23.4138C3.05456 23.5877 2.82266 23.6457 2.59076 23.6457Z" fill="#0C5AA6"/>
<path d="M46.362 44.9226C45.6663 44.9226 45.1445 44.4009 45.1445 43.7052V18.892C45.1445 18.1963 45.6663 17.6746 46.362 17.6746C47.0577 17.6746 47.5795 18.1963 47.5795 18.892V43.7631C47.5795 44.4009 47.0577 44.9226 46.362 44.9226Z" fill="#0C5AA6"/>
<path d="M8.09637 44.9226C7.40068 44.9226 6.87891 44.4009 6.87891 43.7052V18.892C6.87891 18.1963 7.40068 17.6746 8.09637 17.6746C8.79206 17.6746 9.31383 18.1963 9.31383 18.892V43.7631C9.31383 44.4009 8.73408 44.9226 8.09637 44.9226Z" fill="#0C5AA6"/>
<path d="M12.5041 45.2701H3.8659C3.17021 45.2701 2.64844 44.7484 2.64844 44.0527C2.64844 43.357 3.17021 42.8352 3.8659 42.8352H12.5041C13.1998 42.8352 13.7215 43.357 13.7215 44.0527C13.7215 44.6904 13.1418 45.2701 12.5041 45.2701Z" fill="#0C5AA6"/>
<path d="M50.6492 45.2699H42.069C41.3733 45.2699 40.8516 44.7481 40.8516 44.0524C40.8516 43.3567 41.3733 42.835 42.069 42.835H50.7072C51.4029 42.835 51.9247 43.3567 51.9247 44.0524C51.8667 44.6901 51.3449 45.2699 50.6492 45.2699Z" fill="#0C5AA6"/>
<path d="M27.2295 56.4011C20.9103 56.4011 15.8086 51.2994 15.8086 44.9801C15.8086 39.0667 25.2584 28.2834 26.3019 27.066C26.5338 26.8341 26.8817 26.6602 27.2295 26.6602C27.5774 26.6602 27.9252 26.8341 28.1571 27.066C29.2586 28.2834 38.6505 39.0667 38.6505 44.9801C38.5925 51.2994 33.4908 56.4011 27.2295 56.4011ZM27.2295 29.7908C24.0989 33.5012 18.2435 41.2118 18.2435 45.0381C18.2435 49.966 22.3017 54.0242 27.2295 54.0242C32.1574 54.0242 36.2156 49.966 36.2156 45.0381C36.2156 41.1538 30.3601 33.5012 27.2295 29.7908Z" fill="#0C5AA6"/>
<path d="M27.1111 51.0099C25.4299 51.0099 23.8066 50.5461 22.4732 49.6185C21.8935 49.2706 21.7775 48.517 22.1254 47.9372C22.4732 47.3575 23.2269 47.2415 23.8066 47.5894C25.8357 48.9228 28.5605 48.9228 30.5316 47.4734C31.0534 47.0676 31.8071 47.1835 32.2129 47.7633C32.6187 48.2851 32.4448 49.0387 31.923 49.4445C30.5316 50.4881 28.8504 51.0099 27.1111 51.0099Z" fill="white"/>
<path d="M27.2301 24.0517C24.9691 24.0517 23.1719 22.2545 23.1719 19.9935C23.1719 17.7325 24.9691 15.9353 27.2301 15.9353C29.4911 15.9353 31.2883 17.7325 31.2883 19.9935C31.2883 22.2545 29.4331 24.0517 27.2301 24.0517ZM27.2301 18.3123C26.3025 18.3123 25.6068 19.0659 25.6068 19.9356C25.6068 20.8052 26.3605 21.5588 27.2301 21.5588C28.1577 21.5588 28.8534 20.8052 28.8534 19.9356C28.8534 19.0659 28.0997 18.3123 27.2301 18.3123Z" fill="#0C5AA6"/>
<path d="M8.15496 20.1096C7.45927 20.1096 6.9375 19.5878 6.9375 18.8921V6.48553C6.9375 5.78984 7.45927 5.26807 8.15496 5.26807H15.4018C16.0974 5.26807 16.6192 5.78984 16.6192 6.48553V14.0802C16.6192 14.7759 16.0974 15.2977 15.4018 15.2977C14.7061 15.2977 14.1843 14.7759 14.1843 14.0802V7.703H9.37242V18.8921C9.37242 19.5298 8.85065 20.1096 8.15496 20.1096Z" fill="#0C5AA6"/>
</g>
<path d="M71.2389 41.6111C69.5874 41.6111 68.1053 41.2194 66.7927 40.436C65.5011 39.6315 64.4743 38.5517 63.7121 37.1966C62.971 35.8416 62.6005 34.3172 62.6005 32.6234C62.6005 30.9296 62.9816 29.4052 63.7438 28.0501C64.506 26.6951 65.5329 25.6259 66.8244 24.8425C68.1159 24.0591 69.5768 23.6674 71.2071 23.6674C72.5833 23.6674 73.8007 23.9427 74.8594 24.4932C75.918 25.0436 76.7543 25.8058 77.3683 26.7798L76.8284 27.6055V17.1887H80.3854V41.23H76.9872V37.7365L77.4001 38.4035C76.8072 39.4409 75.9603 40.2349 74.8594 40.7854C73.7584 41.3358 72.5516 41.6111 71.2389 41.6111ZM71.5882 38.2764C72.5833 38.2764 73.4726 38.0329 74.2559 37.546C75.0605 37.059 75.6851 36.3921 76.1297 35.5452C76.5955 34.6771 76.8284 33.7032 76.8284 32.6234C76.8284 31.5436 76.5955 30.5802 76.1297 29.7333C75.6851 28.8864 75.0605 28.2195 74.2559 27.7325C73.4726 27.2456 72.5833 27.0021 71.5882 27.0021C70.5931 27.0021 69.6933 27.2456 68.8887 27.7325C68.0842 28.2195 67.4596 28.8864 67.015 29.7333C66.5703 30.5802 66.348 31.5436 66.348 32.6234C66.348 33.7032 66.5703 34.6771 67.015 35.5452C67.4596 36.3921 68.0736 37.059 68.857 37.546C69.6615 38.0329 70.5719 38.2764 71.5882 38.2764ZM84.575 41.23V24.0485H88.005V27.5102L87.6874 27.0021C88.0685 25.8799 88.6825 25.0754 89.5294 24.5884C90.3763 24.0803 91.3926 23.8262 92.5782 23.8262H93.6263V27.0974H92.1336C90.948 27.0974 89.9846 27.4679 89.2436 28.2089C88.5237 28.9288 88.1638 29.9662 88.1638 31.3213V41.23H84.575ZM97.6058 48.2169C97.1823 48.2169 96.7589 48.1745 96.3354 48.0899C95.9332 48.0263 95.5626 47.9205 95.2239 47.7723V44.6917C95.4779 44.7552 95.7849 44.8081 96.1449 44.8505C96.5048 44.914 96.8542 44.9457 97.1929 44.9457C98.188 44.9457 98.9185 44.7234 99.3843 44.2788C99.8712 43.8554 100.305 43.199 100.686 42.3098L101.83 39.7056L101.766 42.7226L94.3346 24.0485H98.1774L103.672 38.3717H102.37L107.832 24.0485H111.707L104.116 43.1037C103.714 44.12 103.206 45.0093 102.592 45.7715C101.999 46.5549 101.29 47.1583 100.464 47.5817C99.6595 48.0052 98.7067 48.2169 97.6058 48.2169ZM120.514 41.6111C118.757 41.6111 117.212 41.177 115.878 40.309C114.565 39.4409 113.644 38.2764 113.115 36.8155L115.878 35.5134C116.343 36.4873 116.979 37.2601 117.783 37.8318C118.609 38.4035 119.519 38.6893 120.514 38.6893C121.361 38.6893 122.049 38.4987 122.579 38.1176C123.108 37.7365 123.373 37.2178 123.373 36.5615C123.373 36.138 123.256 35.7992 123.023 35.5452C122.791 35.2699 122.494 35.0476 122.134 34.8782C121.795 34.7089 121.446 34.5818 121.086 34.4971L118.387 33.7349C116.905 33.3115 115.793 32.6763 115.052 31.8294C114.332 30.9613 113.972 29.9556 113.972 28.8123C113.972 27.7749 114.237 26.8751 114.766 26.1128C115.295 25.3295 116.026 24.726 116.957 24.3026C117.889 23.8791 118.937 23.6674 120.102 23.6674C121.668 23.6674 123.066 24.0591 124.294 24.8425C125.522 25.6047 126.39 26.6739 126.898 28.0501L124.135 29.3522C123.796 28.5265 123.256 27.8702 122.515 27.3832C121.795 26.8962 120.98 26.6527 120.07 26.6527C119.286 26.6527 118.662 26.8433 118.196 27.2244C117.73 27.5843 117.497 28.0607 117.497 28.6535C117.497 29.0558 117.603 29.3946 117.815 29.6698C118.027 29.9239 118.302 30.1356 118.641 30.305C118.979 30.4532 119.329 30.5802 119.689 30.6861L122.484 31.5118C123.902 31.9141 124.992 32.5493 125.755 33.4173C126.517 34.2642 126.898 35.2805 126.898 36.4662C126.898 37.4825 126.623 38.3823 126.072 39.1657C125.543 39.9279 124.802 40.5313 123.849 40.9759C122.896 41.3994 121.785 41.6111 120.514 41.6111ZM135.559 41.6111C134.395 41.6111 133.368 41.4099 132.479 41.0077C131.61 40.5842 130.933 40.0126 130.446 39.2927C129.959 38.5517 129.716 37.6836 129.716 36.6885C129.716 35.7569 129.917 34.9206 130.319 34.1796C130.742 33.4385 131.388 32.8139 132.256 32.3058C133.124 31.7976 134.215 31.4377 135.527 31.226L141.498 30.2415V33.068L136.226 33.989C135.273 34.1584 134.575 34.4654 134.13 34.91C133.685 35.3335 133.463 35.8839 133.463 36.5615C133.463 37.2178 133.707 37.7577 134.194 38.1811C134.702 38.5834 135.347 38.7846 136.131 38.7846C137.105 38.7846 137.952 38.5728 138.672 38.1494C139.413 37.7259 139.984 37.1649 140.386 36.4662C140.789 35.7463 140.99 34.9523 140.99 34.0843V29.6698C140.99 28.8229 140.672 28.1348 140.037 27.6055C139.423 27.055 138.597 26.7798 137.56 26.7798C136.607 26.7798 135.771 27.0338 135.051 27.542C134.352 28.029 133.834 28.6641 133.495 29.4475L130.51 27.9548C130.827 27.1079 131.346 26.3669 132.066 25.7317C132.786 25.0754 133.622 24.5673 134.575 24.2073C135.549 23.8474 136.575 23.6674 137.655 23.6674C139.01 23.6674 140.207 23.9215 141.244 24.4296C142.303 24.9378 143.118 25.647 143.689 26.5575C144.282 27.4467 144.579 28.4842 144.579 29.6698V41.23H141.149V38.1176L141.879 38.2129C141.477 38.9116 140.958 39.515 140.323 40.0232C139.709 40.5313 139 40.923 138.195 41.1982C137.412 41.4735 136.533 41.6111 135.559 41.6111ZM150.557 41.23V27.2879H147.381V24.0485H150.557V23.1593C150.557 21.8678 150.822 20.788 151.351 19.9199C151.88 19.0307 152.611 18.3531 153.542 17.8873C154.495 17.4215 155.585 17.1887 156.813 17.1887C157.046 17.1887 157.311 17.2098 157.607 17.2522C157.904 17.2733 158.147 17.3051 158.338 17.3474V20.4598C158.168 20.4175 157.978 20.3963 157.766 20.3963C157.554 20.3751 157.385 20.3645 157.258 20.3645C156.305 20.3645 155.543 20.5868 154.971 21.0315C154.4 21.4549 154.114 22.1642 154.114 23.1593V24.0485H158.052V27.2879H154.114V41.23H150.557ZM168.813 41.6111C167.098 41.6111 165.574 41.2194 164.24 40.436C162.927 39.6315 161.9 38.5517 161.159 37.1966C160.418 35.8204 160.048 34.2854 160.048 32.5916C160.048 30.8555 160.418 29.3205 161.159 27.9866C161.921 26.6527 162.938 25.6047 164.208 24.8425C165.478 24.0591 166.918 23.6674 168.527 23.6674C169.819 23.6674 170.973 23.8897 171.989 24.3344C173.005 24.779 173.863 25.393 174.561 26.1764C175.26 26.9386 175.789 27.8172 176.149 28.8123C176.53 29.8074 176.721 30.8661 176.721 31.9882C176.721 32.2634 176.71 32.5493 176.689 32.8457C176.668 33.1421 176.626 33.4173 176.562 33.6714H162.874V30.8131H174.53L172.815 32.1152C173.026 31.0778 172.952 30.1568 172.592 29.3522C172.254 28.5265 171.724 27.8807 171.004 27.4149C170.306 26.928 169.48 26.6845 168.527 26.6845C167.574 26.6845 166.727 26.928 165.986 27.4149C165.245 27.8807 164.674 28.5583 164.271 29.4475C163.869 30.3156 163.71 31.3742 163.795 32.6234C163.689 33.7879 163.848 34.8041 164.271 35.6722C164.716 36.5403 165.33 37.2178 166.113 37.7048C166.918 38.1917 167.828 38.4352 168.845 38.4352C169.882 38.4352 170.761 38.2023 171.481 37.7365C172.222 37.2707 172.804 36.6673 173.227 35.9263L176.149 37.3554C175.81 38.16 175.281 38.8904 174.561 39.5468C173.863 40.1819 173.016 40.6901 172.021 41.0712C171.047 41.4311 169.977 41.6111 168.813 41.6111Z" fill="#0C5AA6"/>
<defs>
<linearGradient id="paint0_linear_2064_968" x1="13.1826" y1="17.5441" x2="35.1223" y2="39.257" gradientUnits="userSpaceOnUse">
<stop stop-color="#36DFF1"/>
<stop offset="1" stop-color="#2764E7"/>
</linearGradient>
<linearGradient id="paint1_linear_2064_968" x1="19.8429" y1="35.4114" x2="36.7602" y2="48.4429" gradientUnits="userSpaceOnUse">
<stop stop-color="#36DFF1"/>
<stop offset="1" stop-color="#2764E7"/>
</linearGradient>
<clipPath id="clip0_2064_968">
<rect width="53.264" height="56.4599" fill="white"/>
</clipPath>
</defs>
</svg>
