<svg width="174" height="55" viewBox="0 0 174 55" fill="none" xmlns="http://www.w3.org/2000/svg">
<g clip-path="url(#clip0_1_6322)">
<path d="M40.6481 41.6028H11.6094V20.5751L26.8519 11.1182L40.6481 20.5751V41.6028Z" fill="url(#paint0_linear_1_6322)"/>
<path d="M40.6481 41.6028H11.6094V20.5751L26.8519 11.1182L40.6481 20.5751V41.6028Z" fill="#DFEEFC" fill-opacity="0.64"/>
<path d="M26.1282 21.9106C27.6336 21.9106 28.8541 20.6902 28.8541 19.1848C28.8541 17.6794 27.6336 16.459 26.1282 16.459C24.6227 16.459 23.4023 17.6794 23.4023 19.1848C23.4023 20.6902 24.6227 21.9106 26.1282 21.9106Z" fill="#9BBFDA"/>
<path d="M35.6991 43.3277C35.6991 48.6681 31.4156 52.9515 26.1308 52.9515C20.846 52.9515 16.5625 48.6124 16.5625 43.3277C16.5625 37.9873 26.1308 27.1396 26.1308 27.1396C26.1308 27.1396 35.6991 37.9873 35.6991 43.3277Z" fill="white"/>
<path d="M36.4225 44.6623C36.4225 49.6689 32.3615 53.7298 27.4104 53.7298C22.4038 53.7298 18.3984 49.6689 18.3984 44.6623C18.3984 39.6556 27.4104 29.4199 27.4104 29.4199C27.4104 29.4199 36.4225 39.6556 36.4225 44.6623Z" fill="#9BBFDA"/>
<path d="M36.4225 44.6623C36.4225 49.6689 32.3615 53.7298 27.4104 53.7298C22.4038 53.7298 18.3984 49.6689 18.3984 44.6623C18.3984 39.6556 27.4104 29.4199 27.4104 29.4199C27.4104 29.4199 36.4225 39.6556 36.4225 44.6623Z" fill="url(#paint1_linear_1_6322)"/>
<path opacity="0.34" d="M33.6967 37.9316C34.1418 38.9886 34.3643 39.9899 34.3643 40.88C34.3643 45.8866 30.359 50.0031 25.3523 50.0031C22.6821 50.0031 20.29 48.8349 18.6211 46.9435C19.5668 50.9488 23.1271 53.8971 27.355 53.8971C32.306 53.8971 36.367 49.8362 36.367 44.774C36.4226 42.9382 35.2544 40.3793 33.6967 37.9316Z" fill="#86A1BA"/>
<path d="M2.48596 22.6891C2.09655 22.6891 1.70714 22.5222 1.48463 22.1328C1.15085 21.5765 1.26211 20.8533 1.8184 20.5196L25.5167 5.27724C25.9061 5.05472 26.4067 5.05472 26.7961 5.27724L50.3831 20.5196C50.9394 20.8533 51.0507 21.5765 50.7169 22.1328C50.3831 22.6891 49.6599 22.856 49.1036 22.4666L26.1286 7.61365L3.15352 22.4666C2.931 22.6335 2.70848 22.6891 2.48596 22.6891Z" fill="white"/>
<path d="M44.4885 43.1056C43.821 43.1056 43.3203 42.6049 43.3203 41.9374V18.1282C43.3203 17.4606 43.821 16.96 44.4885 16.96C45.1561 16.96 45.6568 17.4606 45.6568 18.1282V41.993C45.6568 42.6049 45.1561 43.1056 44.4885 43.1056Z" fill="white"/>
<path d="M7.76979 43.1056C7.10223 43.1056 6.60156 42.6049 6.60156 41.9374V18.1282C6.60156 17.4606 7.10223 16.96 7.76979 16.96C8.43734 16.96 8.93801 17.4606 8.93801 18.1282V41.993C8.93801 42.6049 8.38171 43.1056 7.76979 43.1056Z" fill="white"/>
<path d="M11.9961 43.439H3.70729C3.03973 43.439 2.53906 42.9383 2.53906 42.2707C2.53906 41.6032 3.03973 41.1025 3.70729 41.1025H11.9961C12.6637 41.1025 13.1643 41.6032 13.1643 42.2707C13.1643 42.8827 12.608 43.439 11.9961 43.439Z" fill="white"/>
<path d="M48.6045 43.439H40.3713C39.7038 43.439 39.2031 42.9383 39.2031 42.2707C39.2031 41.6032 39.7038 41.1025 40.3713 41.1025H48.6602C49.3277 41.1025 49.8284 41.6032 49.8284 42.2707C49.7728 42.8827 49.2721 43.439 48.6045 43.439Z" fill="white"/>
<path d="M26.1309 54.1197C20.0673 54.1197 15.1719 49.2243 15.1719 43.1608C15.1719 37.4866 24.2395 27.1396 25.2408 25.9714C25.4634 25.7489 25.7971 25.582 26.1309 25.582C26.4647 25.582 26.7985 25.7489 27.021 25.9714C28.078 27.1396 37.09 37.4866 37.09 43.1608C37.0343 49.2243 32.1389 54.1197 26.1309 54.1197ZM26.1309 28.586C23.1269 32.1462 17.5083 39.5449 17.5083 43.2164C17.5083 47.9449 21.4024 51.8389 26.1309 51.8389C30.8594 51.8389 34.7535 47.9449 34.7535 43.2164C34.7535 39.4893 29.1349 32.1462 26.1309 28.586Z" fill="white"/>
<path d="M26.0188 48.9452C24.4055 48.9452 22.8479 48.5002 21.5684 47.6101C21.0121 47.2763 20.9008 46.5531 21.2346 45.9969C21.5684 45.4406 22.2916 45.3293 22.8479 45.6631C24.7949 46.9425 27.4095 46.9425 29.3009 45.5518C29.8016 45.1624 30.5248 45.2737 30.9142 45.83C31.3036 46.3306 31.1367 47.0538 30.636 47.4432C29.3009 48.4445 27.6877 48.9452 26.0188 48.9452Z" fill="white"/>
<path d="M26.1285 23.0791C23.9589 23.0791 22.2344 21.3546 22.2344 19.185C22.2344 17.0155 23.9589 15.291 26.1285 15.291C28.298 15.291 30.0225 17.0155 30.0225 19.185C30.0225 21.3546 28.2424 23.0791 26.1285 23.0791ZM26.1285 17.5718C25.2384 17.5718 24.5708 18.295 24.5708 19.1294C24.5708 19.9638 25.294 20.687 26.1285 20.687C27.0185 20.687 27.6861 19.9638 27.6861 19.1294C27.6861 18.295 26.9629 17.5718 26.1285 17.5718Z" fill="white"/>
<path d="M7.82447 19.2957C7.15692 19.2957 6.65625 18.795 6.65625 18.1275V6.2229C6.65625 5.55535 7.15692 5.05469 7.82447 5.05469H14.7782C15.4457 5.05469 15.9464 5.55535 15.9464 6.2229V13.5103C15.9464 14.1778 15.4457 14.6785 14.7782 14.6785C14.1106 14.6785 13.61 14.1778 13.61 13.5103V7.3911H8.9927V18.1275C8.9927 18.7394 8.49203 19.2957 7.82447 19.2957Z" fill="white"/>
</g>
<path d="M68.2345 39.4536C66.6092 39.4536 65.1566 39.0676 63.8767 38.2956C62.5968 37.5236 61.581 36.4773 60.8293 35.1567C60.0979 33.8362 59.7322 32.3735 59.7322 30.7685C59.7322 29.1432 60.1081 27.6805 60.8597 26.3802C61.6114 25.0597 62.6272 24.0134 63.9071 23.2414C65.1871 22.4694 66.6193 22.0834 68.204 22.0834C69.4229 22.0834 70.4997 22.317 71.4342 22.7843C72.3891 23.2312 73.1408 23.8712 73.6893 24.7042L72.9884 25.6184V16.0191H77.5595V39.0879H73.2931V36.0405L73.7198 36.9852C73.1509 37.7978 72.3789 38.4175 71.4037 38.8441C70.4286 39.2504 69.3721 39.4536 68.2345 39.4536ZM68.783 35.3396C69.6159 35.3396 70.3473 35.1466 70.9771 34.7606C71.6069 34.3746 72.0945 33.8362 72.4399 33.1455C72.8056 32.4547 72.9884 31.6624 72.9884 30.7685C72.9884 29.8746 72.8056 29.0823 72.4399 28.3915C72.0945 27.7008 71.6069 27.1624 70.9771 26.7764C70.3473 26.3904 69.6159 26.1974 68.783 26.1974C67.95 26.1974 67.1983 26.4005 66.5279 26.8069C65.8778 27.1929 65.3699 27.7312 65.0042 28.422C64.6385 29.0924 64.4557 29.8746 64.4557 30.7685C64.4557 31.6624 64.6385 32.4547 65.0042 33.1455C65.3699 33.8362 65.8778 34.3746 66.5279 34.7606C67.1983 35.1466 67.95 35.3396 68.783 35.3396ZM80.9071 39.0879V22.4491H85.1735V26.4412L84.8687 25.8622C85.2344 24.4604 85.8337 23.5157 86.6667 23.0281C87.52 22.5202 88.5256 22.2662 89.6836 22.2662H90.6588V26.2279H89.2265C88.1091 26.2279 87.2051 26.5732 86.5143 27.264C85.8236 27.9344 85.4782 28.8893 85.4782 30.1285V39.0879H80.9071ZM95.2525 45.7922C94.7649 45.7922 94.2875 45.7515 93.8202 45.6703C93.3733 45.589 92.9771 45.457 92.6317 45.2741V41.5258C92.9162 41.6071 93.2514 41.6782 93.6374 41.7391C94.0234 41.8001 94.3789 41.8306 94.704 41.8306C95.5979 41.8306 96.2378 41.6172 96.6238 41.1906C97.0098 40.7843 97.3247 40.317 97.5685 39.7888L98.6961 37.1985L98.6351 41.0078L91.3214 22.4491H96.2277L101.073 35.6443H99.2446L104.09 22.4491H108.996L101.865 40.6421C101.418 41.7798 100.87 42.7346 100.22 43.5066C99.5697 44.2786 98.8281 44.8475 97.9952 45.2132C97.1825 45.5992 96.2683 45.7922 95.2525 45.7922ZM117.516 39.4536C115.687 39.4536 114.092 39.0269 112.731 38.1737C111.39 37.3001 110.476 36.1319 109.989 34.6692L113.341 33.0845C113.767 33.9784 114.346 34.6793 115.078 35.1872C115.809 35.6951 116.622 35.9491 117.516 35.9491C118.166 35.9491 118.664 35.817 119.009 35.5529C119.354 35.2888 119.527 34.9231 119.527 34.4558C119.527 34.212 119.466 34.0089 119.344 33.8464C119.222 33.6635 119.039 33.501 118.796 33.3588C118.552 33.2166 118.247 33.0947 117.881 32.9931L115.047 32.2008C113.686 31.8148 112.64 31.1951 111.908 30.3419C111.177 29.4683 110.811 28.4423 110.811 27.264C110.811 26.2279 111.076 25.3238 111.604 24.5518C112.132 23.7798 112.873 23.1805 113.828 22.7538C114.783 22.3069 115.88 22.0834 117.12 22.0834C118.745 22.0834 120.167 22.4694 121.386 23.2414C122.625 23.9931 123.499 25.0597 124.007 26.4412L120.624 28.0258C120.38 27.3351 119.933 26.7865 119.283 26.3802C118.653 25.9536 117.932 25.7403 117.12 25.7403C116.53 25.7403 116.063 25.8622 115.718 26.106C115.393 26.3498 115.23 26.685 115.23 27.1116C115.23 27.3351 115.291 27.5382 115.413 27.7211C115.535 27.9039 115.728 28.0665 115.992 28.2087C116.276 28.3509 116.622 28.4829 117.028 28.6048L119.679 29.3972C121.061 29.8035 122.117 30.4231 122.849 31.2561C123.58 32.0687 123.946 33.0744 123.946 34.273C123.946 35.3091 123.671 36.2132 123.123 36.9852C122.595 37.7572 121.853 38.3667 120.898 38.8136C119.943 39.2403 118.816 39.4536 117.516 39.4536ZM131.828 39.4536C130.629 39.4536 129.593 39.2606 128.719 38.8746C127.846 38.4886 127.175 37.94 126.708 37.229C126.241 36.4976 126.007 35.6342 126.007 34.6387C126.007 33.7041 126.221 32.8814 126.647 32.1703C127.074 31.4389 127.724 30.8294 128.598 30.3419C129.491 29.8543 130.599 29.5089 131.919 29.3057L137.008 28.4829V31.8351L132.742 32.5969C132.092 32.7188 131.594 32.9321 131.249 33.2369C130.903 33.5213 130.731 33.9378 130.731 34.4863C130.731 34.9942 130.924 35.3904 131.31 35.6748C131.696 35.9592 132.173 36.1014 132.742 36.1014C133.494 36.1014 134.154 35.9389 134.723 35.6139C135.292 35.2888 135.728 34.852 136.033 34.3035C136.358 33.7346 136.521 33.115 136.521 32.4446V28.1172C136.521 27.4875 136.267 26.9592 135.759 26.5326C135.271 26.106 134.601 25.8926 133.748 25.8926C132.935 25.8926 132.214 26.1161 131.584 26.5631C130.974 27.01 130.528 27.5992 130.243 28.3306L126.586 26.5935C126.911 25.659 127.429 24.8565 128.14 24.1861C128.851 23.5157 129.705 22.9976 130.7 22.6319C131.696 22.2662 132.783 22.0834 133.961 22.0834C135.363 22.0834 136.602 22.3373 137.679 22.8452C138.756 23.3531 139.588 24.0642 140.178 24.9784C140.787 25.8723 141.092 26.9186 141.092 28.1172V39.0879H136.825V36.4062L137.862 36.2233C137.374 36.9547 136.836 37.5642 136.246 38.0518C135.657 38.519 134.997 38.8644 134.266 39.0879C133.534 39.3317 132.722 39.4536 131.828 39.4536ZM146.158 39.0879V26.4107H143.354V22.4491H146.158V22.2053C146.158 20.8848 146.412 19.7674 146.92 18.8531C147.448 17.9389 148.2 17.238 149.175 16.7504C150.15 16.2629 151.328 16.0191 152.71 16.0191C152.974 16.0191 153.258 16.0394 153.563 16.08C153.868 16.1003 154.122 16.1308 154.325 16.1714V20.0721C154.122 20.0315 153.939 20.0112 153.776 20.0112C153.634 19.9908 153.482 19.9807 153.319 19.9807C152.466 19.9807 151.816 20.1737 151.369 20.5597C150.942 20.9254 150.729 21.4739 150.729 22.2053V22.4491H154.294V26.4107H150.729V39.0879H146.158ZM164.333 39.4536C162.566 39.4536 161.032 39.0676 159.731 38.2956C158.431 37.5032 157.426 36.4468 156.715 35.1263C156.003 33.8057 155.648 32.343 155.648 30.738C155.648 29.0721 156.014 27.589 156.745 26.2888C157.497 24.9886 158.502 23.9626 159.762 23.2109C161.022 22.4592 162.444 22.0834 164.028 22.0834C165.349 22.0834 166.517 22.2967 167.533 22.7233C168.549 23.1297 169.402 23.7087 170.093 24.4604C170.804 25.2121 171.342 26.0856 171.708 27.0811C172.073 28.0563 172.256 29.1229 172.256 30.2809C172.256 30.606 172.236 30.931 172.195 31.2561C172.175 31.5608 172.124 31.8249 172.043 32.0484H159.579V28.6963H169.453L167.289 30.2809C167.492 29.4073 167.482 28.6353 167.259 27.9649C167.035 27.2741 166.639 26.7358 166.07 26.3498C165.522 25.9434 164.841 25.7403 164.028 25.7403C163.236 25.7403 162.555 25.9333 161.987 26.3193C161.418 26.7053 160.991 27.2741 160.707 28.0258C160.422 28.7775 160.31 29.6917 160.371 30.7685C160.29 31.703 160.402 32.5258 160.707 33.2369C161.011 33.9479 161.479 34.5066 162.108 34.913C162.738 35.299 163.5 35.492 164.394 35.492C165.207 35.492 165.897 35.3294 166.466 35.0044C167.055 34.6793 167.513 34.2324 167.838 33.6635L171.494 35.4005C171.169 36.2132 170.651 36.9242 169.94 37.5337C169.25 38.1432 168.427 38.6206 167.472 38.966C166.517 39.2911 165.471 39.4536 164.333 39.4536Z" fill="white"/>
<defs>
<linearGradient id="paint0_linear_1_6322" x1="12.6467" y1="16.834" x2="33.6987" y2="37.6689" gradientUnits="userSpaceOnUse">
<stop stop-color="#36DFF1"/>
<stop offset="1" stop-color="#2764E7"/>
</linearGradient>
<linearGradient id="paint1_linear_1_6322" x1="19.0423" y1="33.978" x2="35.2752" y2="46.4825" gradientUnits="userSpaceOnUse">
<stop stop-color="#36DFF1"/>
<stop offset="1" stop-color="#2764E7"/>
</linearGradient>
<clipPath id="clip0_1_6322">
<rect width="51.1094" height="54.176" fill="white"/>
</clipPath>
</defs>
</svg>
